<?xml version="1.0" encoding="UTF-8" standalone="no"?>
<!-- Created with Inkscape (http://www.inkscape.org/) -->

<svg
   width="512"
   height="512"
   viewBox="0 0 135.46666 135.46667"
   version="1.1"
   id="svg5"
   inkscape:version="1.1.1 (eb90963e84, 2021-10-02)"
   sodipodi:docname="BrandLogov1.svg"
   inkscape:export-filename="/home/daniel/Desktop/commerce/public/BrandLogo.png"
   inkscape:export-xdpi="200.06252"
   inkscape:export-ydpi="200.06252"
   xmlns:inkscape="http://www.inkscape.org/namespaces/inkscape"
   xmlns:sodipodi="http://sodipodi.sourceforge.net/DTD/sodipodi-0.dtd"
   xmlns="http://www.w3.org/2000/svg"
   xmlns:svg="http://www.w3.org/2000/svg">
  <sodipodi:namedview
     id="namedview7"
     pagecolor="#505050"
     bordercolor="#eeeeee"
     borderopacity="1"
     inkscape:pageshadow="0"
     inkscape:pageopacity="0"
     inkscape:pagecheckerboard="0"
     inkscape:document-units="mm"
     showgrid="true"
     units="px"
     inkscape:snap-bbox="true"
     inkscape:lockguides="false"
     inkscape:zoom="1.191528"
     inkscape:cx="309.68639"
     inkscape:cy="297.51714"
     inkscape:window-width="1366"
     inkscape:window-height="660"
     inkscape:window-x="0"
     inkscape:window-y="27"
     inkscape:window-maximized="1"
     inkscape:current-layer="text11886"
     height="512px"
     showguides="false" />
  <defs
     id="defs2">
    <rect
       x="504.34143"
       y="1137.0015"
       width="66.632257"
       height="286.0398"
       id="rect11092" />
    <rect
       x="739.76632"
       y="883.53993"
       width="58.727579"
       height="323.05098"
       id="rect5278" />
    <rect
       x="-215.44406"
       y="907.13287"
       width="1712.2133"
       height="839.0979"
       id="rect2713" />
    <rect
       x="328.73792"
       y="192.43195"
       width="649.45782"
       height="172.38695"
       id="rect21890" />
    <rect
       x="813.82678"
       y="412.92688"
       width="108.24297"
       height="40.089989"
       id="rect10846" />
    <rect
       x="440.98987"
       y="432.97189"
       width="805.80878"
       height="248.55794"
       id="rect2762" />
    <rect
       x="440.98987"
       y="432.97189"
       width="805.80878"
       height="248.55794"
       id="rect9120" />
    <rect
       x="440.98987"
       y="432.97189"
       width="805.80878"
       height="248.55794"
       id="rect11888" />
  </defs>
  <g
     inkscape:label="Layer 1"
     inkscape:groupmode="layer"
     id="layer1">
    <text
       xml:space="preserve"
       transform="scale(0.26458333)"
       id="text10844"
       style="font-style:normal;font-weight:normal;font-size:40px;line-height:1.25;font-family:sans-serif;white-space:pre;shape-inside:url(#rect10846);fill:#000000;fill-opacity:1;stroke:none"><tspan
         x="813.82617"
         y="488.4082"
         id="tspan47749"><tspan
           dx="0 20.839844"
           id="tspan47747">ss</tspan></tspan></text>
    <g
       aria-label="K
"
       transform="matrix(0.65975909,-0.11591411,0.13165091,0.74932964,-354.27668,-252.81237)"
       id="text11886"
       style="font-size:133.333px;line-height:1.25;white-space:pre;shape-inside:url(#rect11888);stroke:#000000;stroke-width:3.7821">
      <path
         id="path46213"
         style="stroke-width:10.2047"
         d="M 200 99.242188 L 160.60938 105.73047 L 72.28125 241.18555 L 51.839844 124.8418 L 19.046875 130.60156 L 67.412109 405.88477 L 100.20508 400.12305 L 76.914062 267.55273 L 216.60352 379.67188 L 221.68164 378.7793 C 229.19908 367.8353 230.94656 365.29108 238.19531 354.73828 L 105.06836 247.7793 L 200 99.242188 z M 242.89062 358.50977 C 238.57062 364.79198 234.23257 371.07334 229.82227 377.34961 L 259.78711 372.08594 L 242.89062 358.50977 z "
         transform="matrix(0.38902207,0.06017798,-0.0683479,0.34252061,455.59276,407.86055)" />
    </g>
    <text
       xml:space="preserve"
       transform="scale(0.26458333)"
       id="text21888"
       style="font-style:normal;font-weight:normal;font-size:40px;line-height:1.25;font-family:sans-serif;white-space:pre;shape-inside:url(#rect21890);fill:#000000;fill-opacity:1;stroke:none" />
    <g
       aria-label="S"
       transform="matrix(0.8685056,0.48516175,-0.4902189,0.87755858,29.68147,-69.363502)"
       id="text22072"
       style="font-size:89.3857px;line-height:1.25;fill:#f0387c;stroke:#f0387c;stroke-width:4.465;stroke-miterlimit:4;stroke-dasharray:none;stroke-opacity:1">
      <path
         d="m 146.75467,50.224573 c 0,0 -0.10536,4.973702 -1.90299,6.196529 -2.37848,1.617951 -5.33372,0.26308 -8.63638,-0.611153 -3.30265,-0.874233 -6.49198,-1.311349 -9.56799,-1.311349 -5.34253,0 -9.47086,1.036128 -12.38497,3.108383 -2.88172,2.072256 -4.32258,5.018745 -4.32258,8.839467 0,3.205521 0.95518,5.633946 2.86553,7.285275 1.94274,1.618949 5.60157,2.930299 10.97648,3.934048 l 5.92536,1.214212 c 7.31765,1.392297 12.70876,3.8531 16.17331,7.382411 3.49693,3.496931 5.2454,8.191886 5.2454,14.084864 0,7.02624 -2.36367,12.35258 -7.091,15.97903 -4.69496,3.62645 -11.59169,5.43967 -20.69019,5.43967 -3.43217,0 -7.09099,-0.38855 -10.97648,-1.16564 -3.85309,-0.7771 -7.8519,-1.92655 -11.99641,-3.44836 0,0 0.21186,-5.16905 2.123,-6.34858 2.73544,-1.68828 5.76128,0.16418 9.582,1.29745 3.82072,1.13327 7.57668,1.6999 11.26789,1.6999 5.60157,0 9.92417,-1.10089 12.9678,-3.30266 3.04362,-2.20177 4.56543,-5.34253 4.56543,-9.42228 0,-3.561691 -1.10089,-6.346286 -3.30266,-8.353784 -2.16939,-2.007498 -5.74726,-3.513121 -10.73363,-4.51687 l -5.97393,-1.165644 c -7.31765,-1.457055 -12.61162,-3.739774 -15.88189,-6.848157 -3.27028,-3.108384 -4.90542,-7.430981 -4.90542,-12.96779 0,-6.411041 2.25034,-11.462165 6.75101,-15.15337 4.53306,-3.691206 10.76602,-5.536809 18.69888,-5.536809 3.39979,0 6.86434,0.307601 10.39365,0.922802 3.52932,0.615201 7.13958,1.538003 10.83078,2.768405 z"
         id="path24458"
         style="stroke:#f0387c;stroke-width:3.00456;stroke-miterlimit:4;stroke-dasharray:none;stroke-opacity:1"
         sodipodi:nodetypes="casscsccccscsccasssscccsscssc" />
    </g>
    <text
       xml:space="preserve"
       transform="scale(0.26458333)"
       id="text2711"
       style="font-style:normal;font-weight:normal;font-size:40px;line-height:1.25;font-family:sans-serif;white-space:pre;shape-inside:url(#rect2713);fill:#000000;fill-opacity:1;stroke:none" />
    <text
       xml:space="preserve"
       transform="scale(0.26458333)"
       id="text5276"
       style="fill:black;fill-opacity:1;line-height:1.25;stroke:none;font-family:sans-serif;font-style:normal;font-weight:normal;font-size:40px;white-space:pre;shape-inside:url(#rect5278)" />
    <text
       xml:space="preserve"
       transform="scale(0.26458333)"
       id="text11090"
       style="fill:black;fill-opacity:1;line-height:1.25;stroke:none;font-family:sans-serif;font-style:normal;font-weight:normal;font-size:40px;white-space:pre;shape-inside:url(#rect11092)" />
  </g>
</svg>
