<?xml version="1.0" encoding="UTF-8" standalone="no"?>
<!-- Created with Inkscape (http://www.inkscape.org/) -->

<svg
   width="512"
   height="512"
   viewBox="0 0 135.46666 135.46667"
   version="1.1"
   id="svg5"
   inkscape:version="1.1.1 (eb90963e84, 2021-10-02)"
   sodipodi:docname="BrandLogov1.svg"
   inkscape:export-filename="/home/daniel/Desktop/commerce/public/BrandLogo.png"
   inkscape:export-xdpi="200.06252"
   inkscape:export-ydpi="200.06252"
   xmlns:inkscape="http://www.inkscape.org/namespaces/inkscape"
   xmlns:sodipodi="http://sodipodi.sourceforge.net/DTD/sodipodi-0.dtd"
   xmlns="http://www.w3.org/2000/svg"
   xmlns:svg="http://www.w3.org/2000/svg">
  <sodipodi:namedview
     id="namedview7"
     pagecolor="#898989"
     bordercolor="#eeeeee"
     borderopacity="1"
     inkscape:pageshadow="0"
     inkscape:pageopacity="0"
     inkscape:pagecheckerboard="false"
     inkscape:document-units="mm"
     showgrid="true"
     units="px"
     inkscape:snap-bbox="false"
     inkscape:lockguides="false"
     inkscape:zoom="0.59327685"
     inkscape:cx="327.8402"
     inkscape:cy="277.27359"
     inkscape:window-width="1366"
     inkscape:window-height="660"
     inkscape:window-x="0"
     inkscape:window-y="27"
     inkscape:window-maximized="1"
     inkscape:current-layer="layer1"
     height="512px"
     showguides="false"
     inkscape:snap-global="false" />
  <defs
     id="defs2">
    <rect
       x="504.34143"
       y="1137.0015"
       width="66.632257"
       height="286.0398"
       id="rect11092" />
    <rect
       x="739.76632"
       y="883.53993"
       width="58.727579"
       height="323.05098"
       id="rect5278" />
    <rect
       x="-215.44406"
       y="907.13287"
       width="1712.2133"
       height="839.0979"
       id="rect2713" />
    <rect
       x="328.73792"
       y="192.43195"
       width="649.45782"
       height="172.38695"
       id="rect21890" />
    <rect
       x="813.82678"
       y="412.92688"
       width="108.24297"
       height="40.089989"
       id="rect10846" />
    <rect
       x="440.98987"
       y="432.97189"
       width="805.80878"
       height="248.55794"
       id="rect2762" />
    <rect
       x="440.98987"
       y="432.97189"
       width="805.80878"
       height="248.55794"
       id="rect9120" />
    <rect
       x="440.98987"
       y="432.97189"
       width="805.80878"
       height="248.55794"
       id="rect11888" />
  </defs>
  <g
     inkscape:label="Layer 1"
     inkscape:groupmode="layer"
     id="layer1">
    <rect
       style="stroke:#000000;stroke-width:0.3;fill:#ffffff;fill-opacity:1"
       id="rect1119"
       width="135.39577"
       height="136.51283"
       x="-135.95113"
       y="0.64956665"
       transform="rotate(-90)"
       inkscape:export-filename="/home/daniel/Desktop/commerce/public/rect1119.png"
       inkscape:export-xdpi="200.06252"
       inkscape:export-ydpi="200.06252" />
    <text
       xml:space="preserve"
       transform="scale(0.26458333)"
       id="text10844"
       style="font-style:normal;font-weight:normal;font-size:40px;line-height:1.25;font-family:sans-serif;white-space:pre;shape-inside:url(#rect10846);fill:#000000;fill-opacity:1;stroke:none"><tspan
         x="813.82617"
         y="488.4082"
         id="tspan1362"><tspan
           dx="0 20.839844"
           id="tspan1360">ss</tspan></tspan></text>
    <g
       aria-label="K "
       transform="matrix(0.64094372,-0.1947031,0.22113649,0.72795984,-388.42638,-202.93605)"
       id="text11886"
       style="font-size:133.333px;line-height:1.25;white-space:pre;shape-inside:url(#rect11888);stroke:#000000;stroke-width:3.7821">
      <path
         id="path46213"
         style="stroke-width:3.78209"
         d="m 536.51563,454.34822 -15.61631,-1.92221 -49.22829,35.832 5.9664,-40.74299 -13.04279,-1.48132 -14.11782,96.40261 13.04302,1.48067 6.79907,-46.42531 39.49706,51.68095 2.01981,0.22916 c 4.12105,-2.85559 5.07904,-3.51946 9.05278,-6.27297 l -37.62893,-49.28857 z m -14.29981,90.51867 c -2.3674,1.63871 -4.74152,3.27527 -7.14227,4.90267 l 11.91803,1.35335 z" />
    </g>
    <text
       xml:space="preserve"
       transform="scale(0.26458333)"
       id="text21888"
       style="font-style:normal;font-weight:normal;font-size:40px;line-height:1.25;font-family:sans-serif;white-space:pre;shape-inside:url(#rect21890);fill:#000000;fill-opacity:1;stroke:none" />
    <g
       aria-label="S"
       transform="matrix(0.94069026,0.32370624,-0.32708045,0.9504957,7.8278619,-58.751638)"
       id="text22072"
       style="font-size:89.3857px;line-height:1.25;fill:#f0387c;stroke:#f0387c;stroke-width:4.465;stroke-miterlimit:4;stroke-dasharray:none;stroke-opacity:1"
       inkscape:export-filename="/home/daniel/Desktop/commerce/public/ks.png"
       inkscape:export-xdpi="200.06252"
       inkscape:export-ydpi="200.06252">
      <path
         d="m 146.75467,50.224573 c 0,0 -0.10536,4.973702 -1.90299,6.196529 -2.37848,1.617951 -5.33372,0.26308 -8.63638,-0.611153 -3.30265,-0.874233 -6.49198,-1.311349 -9.56799,-1.311349 -5.34253,0 -9.47086,1.036128 -12.38497,3.108383 -2.88172,2.072256 -4.32258,5.018745 -4.32258,8.839467 0,3.205521 0.95518,5.633946 2.86553,7.285275 1.94274,1.618949 5.60157,2.930299 10.97648,3.934048 l 5.92536,1.214212 c 7.31765,1.392297 12.70876,3.8531 16.17331,7.382411 3.49693,3.496931 5.2454,8.191886 5.2454,14.084864 0,7.02624 -2.36367,12.35258 -7.091,15.97903 -4.69496,3.62645 -11.59169,5.43967 -20.69019,5.43967 -3.43217,0 -5.7022,-0.5038 -10.45188,-1.66483 -4.68756,-1.56679 -9.00865,-2.91015 -13.153158,-4.43196 0,0 1.073498,-4.03702 2.755148,-4.86579 2.88576,-1.42219 5.76128,0.16418 9.582,1.29745 3.82072,1.13327 7.57668,1.6999 11.26789,1.6999 5.60157,0 9.92417,-1.10089 12.9678,-3.30266 3.04362,-2.20177 4.56543,-5.34253 4.56543,-9.42228 0,-3.561691 -1.10089,-6.346286 -3.30266,-8.353784 -2.16939,-2.007498 -5.74726,-3.513121 -10.73363,-4.51687 l -5.97393,-1.165644 c -7.31765,-1.457055 -12.61162,-3.739774 -15.88189,-6.848157 -3.27028,-3.108384 -4.90542,-7.430981 -4.90542,-12.96779 0,-6.411041 2.25034,-11.462165 6.75101,-15.15337 4.53306,-3.691206 10.76602,-5.536809 18.69888,-5.536809 3.39979,0 6.86434,0.307601 10.39365,0.922802 3.52932,0.615201 7.13958,1.538003 10.83078,2.768405 z"
         id="path24458"
         style="stroke:#f0387c;stroke-width:3.00456;stroke-miterlimit:4;stroke-dasharray:none;stroke-opacity:1"
         sodipodi:nodetypes="casscsccccscsccasssscccsscssc" />
    </g>
    <text
       xml:space="preserve"
       transform="scale(0.26458333)"
       id="text2711"
       style="font-style:normal;font-weight:normal;font-size:40px;line-height:1.25;font-family:sans-serif;white-space:pre;shape-inside:url(#rect2713);fill:#000000;fill-opacity:1;stroke:none" />
    <text
       xml:space="preserve"
       transform="scale(0.26458333)"
       id="text5276"
       style="fill:black;fill-opacity:1;line-height:1.25;stroke:none;font-family:sans-serif;font-style:normal;font-weight:normal;font-size:40px;white-space:pre;shape-inside:url(#rect5278)" />
    <text
       xml:space="preserve"
       transform="scale(0.26458333)"
       id="text11090"
       style="fill:black;fill-opacity:1;line-height:1.25;stroke:none;font-family:sans-serif;font-style:normal;font-weight:normal;font-size:40px;white-space:pre;shape-inside:url(#rect11092)" />
  </g>
</svg>
