<?xml version="1.0" encoding="utf-8"?>
<!-- Generator: Adobe Illustrator 21.0.0, SVG Export Plug-In . SVG Version: 6.00 Build 0)  -->
<svg version="1.1" id="Layer_1" xmlns="http://www.w3.org/2000/svg" xmlns:xlink="http://www.w3.org/1999/xlink" x="0px" y="0px"
	 viewBox="0 0 512 512" style="enable-background:new 0 0 512 512;" xml:space="preserve">
<style type="text/css">
	.st0{fill:#333333;}
	.st1{fill:#E6E6E6;}
</style>
<g>
	<path class="st0" d="M256,0C114.6,0,0,114.6,0,256c0,141.4,114.6,256,256,256c141.4,0,256-114.6,256-256C512,114.6,397.4,0,256,0z
		 M256,468.6c-117.4,0-212.6-95.2-212.6-212.6c0-117.4,95.2-212.6,212.6-212.6c117.4,0,212.6,95.2,212.6,212.6
		C468.6,373.4,373.4,468.6,256,468.6z"/>
	<path class="st1" d="M207.2,197.9c0,14.5,9,25.8,28.3,32.7c2.7,1.1,5.4,1.9,8.6,2.9v-70.9C222.9,165.3,207.2,177.1,207.2,197.9z
		 M273.8,275.1c-1.7-0.3-3.3-0.7-5-1.3v76.4c24.3-2.2,41.1-15.6,41.1-37.9C309.9,294.8,300.8,283.4,273.8,275.1z"/>
	<path class="st1" d="M256,43.4C138.6,43.4,43.4,138.6,43.4,256c0,117.4,95.2,212.6,212.6,212.6c117.4,0,212.6-95.2,212.6-212.6
		C468.6,138.6,373.4,43.4,256,43.4z M268.8,380.1l0.1,18.1c0,2.6-2.1,4.6-4.6,4.6h-16.2c-2.5,0-4.6-2.1-4.6-4.6v-17.9
		c-50.9-3.7-74.7-32.6-77.3-64.1c-0.2-2.7,1.9-5,4.6-5h26.4c2.2,0,4.2,1.6,4.5,3.8c2.9,18.2,17.1,31.7,42.3,35v-81.5L230,265
		c-29.9-7.1-58.3-25.8-58.3-64.4c0-41.7,31.7-64.1,72.1-68v-18.9c0-2.5,2.1-4.6,4.6-4.6h16.1c2.5,0,4.6,2.1,4.6,4.6v18.7
		c39.1,3.9,68.5,26.8,71.9,62.4c0.2,2.5-1.7,4.8-4.2,5c-0.1,0-0.2,0-0.4,0h-25.7c-2.3,0-4.2-1.7-4.5-3.9
		c-2.3-16.7-15.7-30.3-37.4-33.3v76.7l14.5,3.4c37,9.1,62.2,26.9,62.3,66.5C345.5,352.2,313.5,376.2,268.8,380.1z"/>
	<path class="st0" d="M283.3,242.7l-14.5-3.4v-76.7c21.7,3,35.1,16.6,37.4,33.3c0.3,2.3,2.2,3.9,4.5,3.9h25.7c2.7,0,4.8-2.3,4.6-5
		c-3.5-35.6-32.8-58.5-71.9-62.4v-18.7c0-2.5-2.1-4.6-4.6-4.6h-16.1c-2.5,0-4.6,2.1-4.6,4.6v18.9c-40.5,3.9-72.1,26.3-72.1,68
		c0,38.6,28.5,57.3,58.3,64.4l14.1,3.6v81.5c-25.3-3.4-39.4-16.9-42.3-35c-0.3-2.2-2.3-3.8-4.5-3.8h-26.4c-2.7,0-4.8,2.3-4.6,5
		c2.6,31.4,26.4,60.3,77.3,64.1v17.9c0,2.5,2.1,4.6,4.6,4.6h16.2c2.5,0,4.6-2.1,4.6-4.6l-0.1-18.1c44.7-3.9,76.7-27.9,76.7-70.9
		C345.5,269.6,320.3,251.9,283.3,242.7z M244.1,233.5c-3.2-0.9-5.9-1.8-8.6-2.9c-19.3-7-28.3-18.2-28.3-32.7
		c0-20.7,15.7-32.6,36.9-35.3V233.5z M268.7,350.3v-76.4c1.8,0.5,3.4,0.9,5,1.3c27,8.2,36.1,19.7,36.1,37.2
		C309.9,334.7,293.1,348.1,268.7,350.3z"/>
</g>
</svg>
